# Alias OBJ Model File
# Exported from SketchUp, (c) 2000-2012 Trimble Navigation Limited
# File units = meters

mtllib cokokuca.mtl

g Mesh1 Model

usemtl FrontColor
v 2.29479 0 -2.3
vt -90.3462 90.5512
vn 0 -1 -0
v 0.20549 0 -0.2
vt -8.09017 7.87402
v 0.20549 0 -2.3
vt -8.09017 90.5512
f 1/1/1 2/2/1 3/3/1

v 2.29479 0 -0.2
vt -90.3462 7.87402
f 2/2/1 1/1/1 4/4/1

vt 90.5512 2.61591e-014
vn 1 -2.89543e-016 -0
v 2.29479 1.24664 -0.2
vt 7.87402 49.0803
vt 7.87402 2.61591e-014
f 1/5/2 5/6/2 4/7/2

v 2.29479 1.24664 -2.3
vt 90.5512 49.0803
f 5/6/2 1/5/2 6/8/2

vt -90.3462 2.78018e-014
vn -5.49561e-016 -3.07029e-016 -1
v 0.20549 1.24664 -2.3
vt -8.09017 49.0803
vt -90.3462 49.0803
f 1/9/3 7/10/3 6/11/3

vt -8.09017 2.78018e-014
f 7/10/3 1/9/3 3/12/3

vt -7.87402 0
vn -1 0 -0
vt -90.5512 49.0803
vt -90.5512 0
f 2/13/4 7/14/4 3/15/4

v 0.20549 1.24664 -0.2
vt -7.87402 49.0803
f 7/14/4 2/13/4 8/16/4

vt 8.09017 0
vn 0 0 1
vt 90.3462 49.0803
vt 8.09017 49.0803
f 2/17/5 5/18/5 8/19/5

vt 90.3462 0
f 5/18/5 2/17/5 4/20/5

v 1.25336 2.30592 -0.2
vt 49.3449 90.7841
f 8/19/5 5/18/5 9/21/5

v 2.39964 1.14 -0.03
vt -1.1811 -34.2286
vn -0.713087 -0.701075 3.38634e-017
vt -7.87402 30.1425
vt -7.87402 -28.341
f 10/22/6 9/23/6 5/24/6

v 1.25336 2.30592 -0.03
vt -1.1811 30.1425
f 9/23/6 10/22/6 11/25/6

vt 94.4739 44.8819
v 1.25 2.39214 -0.03
vt 49.2126 94.1789
f 10/26/5 12/27/5 11/21/5

v 2.5 1.14 -0.03
vt 98.4252 44.8819
f 12/27/5 10/26/5 13/28/5

vt -94.4739 1.1811
v 2.5 1.14 -2.47
vt -98.4252 97.2441
vt -98.4252 1.1811
f 10/29/1 14/30/1 13/31/1

v 2.39964 1.14 -2.3
vt -94.4739 90.5512
f 15/32/1 14/30/1 10/29/1

v 2.39964 1.14 -2.47
vt -94.4739 97.2441
f 14/30/1 15/32/1 16/33/1

v 1.25002 2.32359 -2.3
vt -90.5512 31.3324
vn -0.717328 -0.696735 1.08561e-016
vt -97.2441 -33.6282
vt -90.5512 -33.6282
f 17/34/7 16/35/7 15/36/7

v 1.25002 2.32359 -2.47
vt -97.2441 31.3324
f 16/35/7 17/34/7 18/37/7

vt 90.5512 99.9049
vn 0.717204 -0.696863 -2.41601e-018
v 0.1 1.14 -2.47
vt 97.2441 34.933
vt 97.2441 99.9049
f 17/38/8 19/39/8 18/40/8

v 0.1 1.14 -2.3
vt 90.5512 34.933
f 19/39/8 17/38/8 20/41/8

vt -49.2135 91.48
vt -3.93701 44.8819
f 17/42/3 7/10/3 20/43/3

f 7/10/3 17/42/3 6/11/3

vt -94.4739 44.8819
f 17/42/3 15/44/3 6/11/3

vt -90.5512 -34.2286
vt -90.5512 -28.341
f 15/45/6 5/24/6 6/46/6

f 10/22/6 5/24/6 15/45/6

vt 7.87402 40.5819
vn 0.710925 -0.703268 -3.37607e-017
vt 90.5512 34.6764
vt 90.5512 40.5819
f 8/47/9 20/48/9 7/49/9

v 0.1 1.14 -0.03
vt 1.1811 34.6764
f 8/47/9 21/50/9 20/48/9

vt 1.1811 99.2433
f 21/50/9 8/47/9 11/51/9

vt 7.87402 99.2433
f 9/52/9 11/51/9 8/47/9

v 0 1.14 -0.03
vt 0 44.8819
vt 3.93701 44.8819
f 11/21/5 22/53/5 21/54/5

f 22/53/5 11/21/5 12/27/5

v 1.25 2.39214 -0
vt 0 101.42
vn 0.707712 -0.706501 -0
vt 1.1811 31.7635
vt 1.1811 101.42
f 23/55/10 22/56/10 12/57/10

v 0 1.14 -0
vt 0 31.7635
f 22/56/10 23/55/10 24/58/10

v 0 1.25 -0
vt 0 49.2126
f 23/27/5 25/59/5 24/53/5

v 1.25 2.5 -0
vt 49.2126 98.4252
f 25/59/5 23/27/5 26/60/5

v 2.5 1.25 -0
vt 98.4252 49.2126
f 23/27/5 27/61/5 26/60/5

v 2.5 1.14 -0
f 27/61/5 23/27/5 28/28/5

vt -1.1811 31.8828
vn -0.707712 -0.706501 -0
vt 0 -37.774
vt 0 31.8828
f 12/62/11 28/63/11 23/64/11

vt -1.1811 -37.774
f 28/63/11 12/62/11 13/65/11

vt 1.1811 44.8819
vn 1 0 -0
f 13/66/12 27/59/12 28/53/12

v 2.5 1.25 -2.5
f 27/59/12 13/66/12 29/61/12

vt 97.2441 44.8819
f 29/61/12 13/66/12 14/67/12

v 2.5 1.14 -2.5
f 29/61/12 14/67/12 30/28/12

v 1.25 2.408 -2.47
vt -97.2441 32.9646
vn -0.712144 -0.702034 -1.0159e-016
vt -98.4252 -37.1354
vt -97.2441 -37.1354
f 31/68/13 30/69/13 14/70/13

v 1.25 2.408 -2.5
vt -98.4252 32.9646
f 30/69/13 31/68/13 32/71/13

vt 97.2441 102.062
vn 0.712144 -0.702034 1.12265e-016
v 0 1.14 -2.5
vt 98.4252 31.9624
vt 98.4252 102.062
f 31/72/14 33/73/14 32/74/14

v -4.50447e-018 1.14 -2.47
vt 97.2441 31.9624
f 33/73/14 31/72/14 34/75/14

vt -49.2126 94.8032
vn 1.50149e-016 -7.60296e-018 -1
vt 1.47784e-014 44.8819
f 31/76/15 19/43/15 34/77/15

f 19/43/15 31/76/15 18/42/15

vt -98.4252 44.8819
f 14/78/15 18/42/15 31/76/15

f 18/42/15 14/78/15 16/44/15

vt -3.93701 97.2441
vt 0 1.1811
vt 1.77341e-016 97.2441
f 19/79/1 22/80/1 34/81/1

vt -3.93701 1.1811
f 22/80/1 19/79/1 21/82/1

vt -3.93701 90.5512
f 21/82/1 19/79/1 20/83/1

vt -1.1811 44.8819
v 0 1.25 -2.5
vt -98.4252 49.2126
vt -97.2441 44.8819
f 22/84/4 35/85/4 34/86/4

f 24/53/4 35/85/4 22/84/4

f 35/85/4 24/53/4 25/59/4

vt 0 104.396
vn -0.707107 0.707107 -0
vt -98.4252 34.7986
vt 0 34.7986
f 26/87/16 35/88/16 25/89/16

v 1.25 2.5 -2.5
vt -98.4252 104.396
f 35/88/16 26/87/16 36/90/16

vt -2.31012e-015 -34.7986
vn 0.707107 0.707107 -1.65964e-017
vt 98.4252 34.7986
vt -1.15506e-015 34.7986
f 27/91/17 36/92/17 26/93/17

vt 98.4252 -34.7986
f 36/92/17 27/91/17 29/94/17

vn 1.44382e-016 -1.42251e-016 -1
vt -49.2126 98.4252
f 29/85/18 32/76/18 36/95/18

f 32/76/18 29/85/18 30/78/18

vt 1.42109e-014 49.2126
f 32/76/18 35/96/18 36/95/18

vt 1.42109e-014 44.8819
f 35/96/18 32/76/18 33/97/18

f 34/86/4 35/85/4 33/78/4

