# Alias OBJ Model File
# Exported from SketchUp, (c) 2000-2012 Trimble Navigation Limited
# File units = meters

mtllib cokokuca3.mtl

g Mesh1 Model

usemtl FrontColor
v 9.70262 50.05 2.25754e-014
vt 8.88795e-013 1970.47
vn -1 0 -0
v 9.70262 4.89859e-016 80
vt 3149.61 1.92858e-014
v 9.70262 50.05 80
vt 3149.61 1970.47
f 1/1/1 2/2/1 3/3/1

v 9.70262 4.89859e-016 2.25754e-014
vt 8.88795e-013 1.92858e-014
f 2/2/1 1/1/1 4/4/1

vt -381.993 1970.47
vn -2.46351e-016 -2.86045e-017 -1
v 90.0976 4.89859e-016 9.18043e-016
vt -3547.15 1.92858e-014
vt -381.993 1.92858e-014
f 1/5/2 5/6/2 4/7/2

v 90.0976 50.05 9.18043e-016
vt -3547.15 1970.47
f 5/6/2 1/5/2 6/8/2

v 50 100 8.13716e-015
vt -1968.5 3937.01
f 1/5/2 7/9/2 6/8/2

v 0 50.05 2.25754e-014
vt 2.18955e-028 1970.47
f 7/9/2 1/5/2 8/10/2

vt -381.993 -8.88795e-013
vn 0 -1 -0
v 0 50.05 80
vt 0 -3149.61
vt 0 -8.88795e-013
f 1/11/3 9/12/3 8/13/3

vt -381.993 -3149.61
f 9/12/3 1/11/3 3/14/3

vt 381.993 1970.47
vn 0 0 1
v 50 100 80
vt 1968.5 3937.01
vt 0 1970.47
f 3/15/4 10/16/4 9/17/4

v 90.0976 50.05 80
vt 3547.15 1970.47
f 11/18/4 10/16/4 3/15/4

v 100 50.05 80
vt 3937.01 1970.47
f 10/16/4 11/18/4 12/19/4

vt -3547.15 -3149.61
v 100 50.05 9.18043e-016
vt -3937.01 -3.61434e-014
vt -3937.01 -3149.61
f 11/20/3 13/21/3 12/22/3

vt -3547.15 -3.61434e-014
f 13/21/3 11/20/3 6/23/3

vt -3149.61 1970.47
vn 1 0 -0
vt -3.61434e-014 1.92858e-014
vt -3.61434e-014 1970.47
f 11/24/5 5/25/5 6/26/5

v 90.0976 4.89859e-016 80
vt -3149.61 1.92858e-014
f 5/25/5 11/24/5 14/27/5

v 60.03 4.89859e-016 80
vt 2363.39 1.92858e-014
vt 3547.15 1.92858e-014
f 11/18/4 15/28/4 14/29/4

v 60.03 40 80
vt 2363.39 1574.8
f 15/28/4 11/18/4 16/30/4

v 40.03 40 80
vt 1575.99 1574.8
f 16/30/4 11/18/4 17/31/4

f 3/15/4 17/31/4 11/18/4

vt 381.993 1.92858e-014
f 2/32/4 17/31/4 3/15/4

v 40.03 4.89859e-016 80
vt 1575.99 1.92858e-014
f 17/31/4 2/32/4 18/33/4

vt -1575.99 -3149.61
v 40.03 4.89859e-016 74
vt -1575.99 -2913.39
f 18/34/3 2/14/3 19/35/3

f 2/14/3 5/23/3 19/35/3

f 5/23/3 2/14/3 4/11/3

v 60.03 4.89859e-016 74
vt -2363.39 -2913.39
f 19/35/3 5/23/3 20/36/3

vt -2363.39 -3149.61
f 20/36/3 5/23/3 15/37/3

f 15/37/3 5/23/3 14/20/3

v 60.03 40 74
vt 2913.39 1574.8
vt 2913.39 1.92858e-014
f 15/2/1 21/38/1 20/39/1

vt 3149.61 1574.8
f 21/38/1 15/2/1 16/40/1

f 17/34/3 21/36/3 16/37/3

v 40.03 40 74
f 21/36/3 17/34/3 22/35/3

vt -3149.61 1574.8
vt -2913.39 1.92858e-014
vt -2913.39 1574.8
f 17/41/5 19/42/5 22/43/5

f 19/42/5 17/41/5 18/27/5

f 19/33/4 21/30/4 22/31/4

f 21/30/4 19/33/4 20/28/4

vt -3937.01 1970.47
f 6/8/2 7/9/2 13/44/2

vt -3.20288e-013 1389.85
vn 0.706753 0.70746 2.59448e-020
vt -3149.61 -1392.64
vt -3.59989e-014 -1392.64
f 7/45/6 12/46/6 13/47/6

v 50 100 40
vt -1574.8 1389.85
f 23/48/6 12/46/6 7/45/6

vt -3149.61 1389.85
f 12/46/6 23/48/6 10/49/6

vt 3.21054e-013 4175.13
vn -0.706753 0.70746 2.4907e-019
vt 3149.61 4175.13
vt 1574.8 4175.13
f 7/50/7 10/51/7 23/52/7

v 40.004 90.014 20
vt 787.402 3618.85
f 7/50/7 24/53/7 10/51/7

v 20.164 70.1939 20
vt 787.402 2514.76
f 7/50/7 25/54/7 24/53/7

vt 8.88795e-013 1392.64
f 8/55/7 25/54/7 7/50/7

v 20.164 70.1939 40
vt 1574.8 2514.76
f 25/54/7 8/55/7 26/56/7

vt 3149.61 1392.64
f 9/57/7 26/56/7 8/55/7

f 26/56/7 9/57/7 10/51/7

v 40.004 90.014 40
vt 1574.8 3618.85
f 26/56/7 10/51/7 27/58/7

f 27/58/7 10/51/7 24/53/7

vt -787.402 3543.86
v 40.004 100 40
vt -1574.8 3937.01
vt -1574.8 3543.86
f 24/59/5 28/60/5 27/61/5

v 40.004 100 20
vt -787.402 3937.01
f 28/60/5 24/59/5 29/62/5

vt -1574.96 3543.86
vn 1.88906e-016 -4.20733e-016 -1
v 20.004 100 20
vt -787.56 3937.01
vt -1574.96 3937.01
f 24/63/8 30/64/8 29/65/8

vt -793.859 2763.54
f 25/66/8 30/64/8 24/63/8

v 20.004 70.1939 20
vt -787.56 2763.54
f 30/64/8 25/66/8 31/67/8

vt -793.859 -787.402
v 20.004 70.1939 40
vt -787.56 -1574.8
vt -787.56 -787.402
f 25/68/3 32/69/3 31/70/3

vt -793.859 -1574.8
f 32/69/3 25/68/3 26/71/3

vt 1574.96 3543.86
vn -2.39908e-016 8.71063e-016 1
vt 787.56 2763.54
vt 793.859 2763.54
f 27/72/9 32/73/9 26/74/9

v 20.004 100 40
vt 787.56 3937.01
f 32/73/9 27/72/9 33/75/9

vt 1574.96 3937.01
f 33/75/9 27/72/9 28/76/9

vt 1574.96 -1574.8
vn 0 1 -0
vt 787.56 -787.402
vt 787.56 -1574.8
f 28/77/10 30/78/10 33/79/10

vt 1574.96 -787.402
f 30/78/10 28/77/10 29/80/10

vt 787.402 2763.54
vt 1574.8 3937.01
vt 787.402 3937.01
f 31/81/1 33/82/1 30/83/1

vt 1574.8 2763.54
f 33/82/1 31/81/1 32/84/1

